# xmcd
#
# Track frame offsets: 
#        150
#        16224
#        35124
#        54278
#        67965
#        82903
#        103957
#        115854
#        135900
#        149668
#        169110
#        182010
#        199585
#        220043
#        240540
#        258632
#        279457
#
# Disc length: 4059 seconds
#
# Revision: 0
# Processed by: cddbd v1.5.2PL0 Copyright (c) Steve Scherf et al.
# Submitted via: ExactAudioCopy v0.99pb4
#
DISCID=ef0fd911
DTITLE=ASD  -  ASD
DYEAR=1900
DGENRE=Alternative
TTITLE0=UNCHAINED MELODY
TTITLE1=SCARBOROUGH FAIR
TTITLE2=CASABLANCA
TTITLE3=AULD LONG SYNE
TTITLE4=LOVE FOOLS
TTITLE5=MY HEART WILL GO ON
TTITLE6=SEALED WITH A KISS
TTITLE7=MOONLIGHT SHADOW
TTITLE8=SPEAB SOFTLY LOVE 
TTITLE9=YOU'LI BE IN MY HEART
TTITLE10=PRETTY WOMAN
TTITLE11=UP WHERE WE BELONG
TTITLE12=I WILL AKWAYS LOVE YOU
TTITLE13=WHEN YOU BELIEVE 
TTITLE14=NOTHING'S GONNA CHANGE MY LOVE FOR YOU
TTITLE15=HOW CAB I NOT LOVE YOU 
TTITLE16=DON'T CRY FOR ME ARGENTINA
EXTD=
EXTT0=
EXTT1=
EXTT2=
EXTT3=
EXTT4=
EXTT5=
EXTT6=
EXTT7=
EXTT8=
EXTT9=
EXTT10=
EXTT11=
EXTT12=
EXTT13=
EXTT14=
EXTT15=
EXTT16=
PLAYORDER=
